<svg id="Layer_1" data-name="Layer 1" xmlns="http://www.w3.org/2000/svg" viewBox="0 0 33.16 48.32"><defs><style>.cls-1{fill:#2e0078;}</style></defs><title>HarfeHonari-logo</title><path class="cls-1" d="M38.13,14.31a3.82,3.82,0,0,0-4.27,2.06,3.15,3.15,0,0,0,.1,3.12,3,3,0,0,0,2.6,1.44,2.57,2.57,0,0,0,2.57-2.57A2.18,2.18,0,0,0,37,16.19a.45.45,0,0,0,0,.9,1.27,1.27,0,0,1,1.27,1.27A1.68,1.68,0,0,1,36.56,20a2.15,2.15,0,0,1-1.85-1,2.26,2.26,0,0,1-.05-2.24,2.91,2.91,0,0,1,3.28-1.59,3.55,3.55,0,0,1,2.75,3.44,4.45,4.45,0,0,1-4.45,4.44,5.58,5.58,0,0,1-5.57-5.57V2.4A1.56,1.56,0,0,0,29.1.84H20.9A1.56,1.56,0,0,0,19.33,2.4V17.49a5.58,5.58,0,0,1-5.57,5.57,4.45,4.45,0,0,1-4.45-4.44,3.55,3.55,0,0,1,2.75-3.44,2.91,2.91,0,0,1,3.28,1.59A2.26,2.26,0,0,1,15.29,19a2.15,2.15,0,0,1-1.85,1,1.68,1.68,0,0,1-1.67-1.68A1.27,1.27,0,0,1,13,17.09a.45.45,0,1,0,0-.9,2.18,2.18,0,0,0-2.17,2.17,2.57,2.57,0,0,0,2.57,2.57,3.07,3.07,0,0,0,2.61-1.44,3.18,3.18,0,0,0,.09-3.12,3.82,3.82,0,0,0-4.27-2.06,4.45,4.45,0,0,0-3.45,4.31A5.35,5.35,0,0,0,13.76,24a6.49,6.49,0,0,0,6.47-6.47h4.32v9a4.39,4.39,0,1,0,.9,0v-9h4.32A6.49,6.49,0,0,0,36.24,24a5.35,5.35,0,0,0,5.34-5.34A4.45,4.45,0,0,0,38.13,14.31Z" transform="translate(-8.42 -0.84)"/><path class="cls-1" d="M19.78,48a1.12,1.12,0,0,0,1.12,1.12h8.2A1.12,1.12,0,0,0,30.22,48V41.27H19.78Z" transform="translate(-8.42 -0.84)"/><path class="cls-1" d="M29.91,25.36l-.79.79a.45.45,0,0,0,0,.63.44.44,0,0,0,.32.13.43.43,0,0,0,.31-.13l.79-.79a.45.45,0,1,0-.63-.63Z" transform="translate(-8.42 -0.84)"/><path class="cls-1" d="M32.39,30.45H31.27a.45.45,0,0,0,0,.9h1.12a.45.45,0,1,0,0-.9Z" transform="translate(-8.42 -0.84)"/><path class="cls-1" d="M29.75,35a.43.43,0,0,0-.63,0,.45.45,0,0,0,0,.63l.79.79a.44.44,0,0,0,.32.13.45.45,0,0,0,.31-.76Z" transform="translate(-8.42 -0.84)"/><path class="cls-1" d="M25.45,38.29V37.17a.45.45,0,0,0-.9,0v1.12a.45.45,0,0,0,.9,0Z" transform="translate(-8.42 -0.84)"/><path class="cls-1" d="M20.88,35.65a.45.45,0,0,0-.63-.63l-.79.79a.45.45,0,0,0,.63.63Z" transform="translate(-8.42 -0.84)"/><path class="cls-1" d="M18.73,30.45H17.61a.45.45,0,1,0,0,.9h1.12a.45.45,0,0,0,0-.9Z" transform="translate(-8.42 -0.84)"/><path class="cls-1" d="M20.25,26.78a.43.43,0,0,0,.31.13.45.45,0,0,0,.32-.76l-.79-.79a.45.45,0,1,0-.63.63Z" transform="translate(-8.42 -0.84)"/></svg>