<svg id="Layer_1" data-name="Layer 1" xmlns="http://www.w3.org/2000/svg" viewBox="0 0 100 100"><defs><style>.cls-1{fill:#2e0078;}.cls-2{fill:#efdb22;}</style></defs><title>images</title><path class="cls-1" d="M62.86,16.45A2.14,2.14,0,1,0,65,14.32,2.14,2.14,0,0,0,62.86,16.45ZM65,15.17a1.28,1.28,0,1,1-1.28,1.28A1.28,1.28,0,0,1,65,15.17Z"/><path class="cls-1" d="M64.3,12.05l.61-.6a4.7,4.7,0,0,0-6.65,0l.6.6A3.85,3.85,0,0,1,64.3,12.05Z"/><path class="cls-1" d="M47.51,47.36a.87.87,0,0,0,.35-.15l.07-.06a3.28,3.28,0,0,0,.64-.59,3.89,3.89,0,0,0,.29-.39,2.21,2.21,0,0,0,.18-.34,1,1,0,0,0,.13-.47L46.68,43.3l-4.75-3.94L36,34.44c.28-.23.54-.47.81-.72L48.35,43.3h1.83V32.88a7.38,7.38,0,0,0-.7-3.11c.32-.16.62-.33.92-.51l.92.77,5.92,4.91,3.92,3.25h0a.7.7,0,0,0,.28-.12s0,0,.05,0a3,3,0,0,0,.52-.47c.09-.11.16-.22.23-.31s.1-.18.14-.27a.84.84,0,0,0,.11-.38l-2-1.65-3.8-3.16L52.16,28h0c.22-.19.44-.37.65-.57l9,7.49h1.46V26.6a5.93,5.93,0,0,0-.55-2.49A12,12,0,1,0,50.45,3.68a14.84,14.84,0,0,0-16.56.7A18.68,18.68,0,1,0,15.46,36.84a9.17,9.17,0,0,0-.83,3.31L31,53.75h2.28v-13a9.34,9.34,0,0,0-.86-3.89c.49-.25,1-.53,1.42-.82l1.37,1.14,7.39,6.14,4.9,4.06ZM51.23,4.18a11.1,11.1,0,1,1,6.08,20.39,11.2,11.2,0,0,1-1.94-.18h0a15,15,0,0,0,2.25-6.85,4.42,4.42,0,0,0,2.66-2.66l-.81-.27a3.72,3.72,0,0,1-1.82,2v-.17A14.94,14.94,0,0,0,51.23,4.17ZM42.7,2.56a13.89,13.89,0,1,1,0,27.78,13.57,13.57,0,0,1-2.87-.3,18.66,18.66,0,0,0,2.75-8.34,5.39,5.39,0,0,0,3.83-3.48l-1-.34a4.44,4.44,0,0,1-2.77,2.71c0-.13,0-.26,0-.4A18.65,18.65,0,0,0,34.83,5,13.85,13.85,0,0,1,42.7,2.56ZM35,33.59a17.86,17.86,0,0,1-11,4A17.36,17.36,0,1,1,32.78,5.27c.32.19.64.38.95.59a17.5,17.5,0,0,1,5.83,6.79c.25.53.48,1.07.69,1.63a17.17,17.17,0,0,1-1.78,15.4,17.84,17.84,0,0,1-2.69,3.18C35.51,33.11,35.26,33.36,35,33.59Z"/><polygon class="cls-1" points="51.32 31.14 51.32 34.94 55.9 34.94 51.32 31.14"/><path class="cls-1" d="M63.07,37.49a1.62,1.62,0,0,1-.1.18,2.73,2.73,0,0,1-.3.42h0a3.08,3.08,0,0,1-.69.63l3.14,1.41-2-2.82Z"/><path class="cls-1" d="M49.9,46.49l-.13.23a3.88,3.88,0,0,1-.37.52h0a4.44,4.44,0,0,1-.86.79l3.92,1.75L50,46.26A2.53,2.53,0,0,1,49.9,46.49Z"/><polygon class="cls-1" points="35.22 43.3 40.94 43.3 35.22 38.55 35.22 43.3"/><path class="cls-1" d="M49.64,20.19a2.67,2.67,0,1,0,2.67-2.67A2.68,2.68,0,0,0,49.64,20.19Zm2.67-1.6a1.6,1.6,0,1,1-1.6,1.6A1.6,1.6,0,0,1,52.31,18.59Z"/><path class="cls-1" d="M51.44,14.69l.75-.75a5.88,5.88,0,0,0-8.31,0l.76.75A4.82,4.82,0,0,1,51.44,14.69Z"/><path class="cls-1" d="M22.61,25.53v1.34a6.52,6.52,0,0,0,6-4.46L27.32,22C27.27,22.13,26.07,25.53,22.61,25.53Z"/><path class="cls-1" d="M33,57.73l-.16.29a5.18,5.18,0,0,1-.46.65h0a5.42,5.42,0,0,1-1.07,1l4.9,2.19-3-4.41A2.49,2.49,0,0,1,33,57.73Z"/><path class="cls-1" d="M11.92,21.53a3.34,3.34,0,1,0,3.34,3.34A3.33,3.33,0,0,0,11.92,21.53Zm0,5.34a2,2,0,1,1,2-2A2,2,0,0,1,11.92,26.87Z"/><path class="cls-1" d="M36,21.53a3.08,3.08,0,0,0-.61.06,3.37,3.37,0,0,0-2.72,3.28A3.26,3.26,0,0,0,33,26.39a3.35,3.35,0,0,0,2.13,1.7,3.19,3.19,0,0,0,.82.12,3.34,3.34,0,0,0,0-6.68Zm0,5.34a2,2,0,1,1,2-2A2,2,0,0,1,36,26.87Z"/><path class="cls-1" d="M31.65,57.34a4.23,4.23,0,0,0,.22-.42,1.14,1.14,0,0,0,.16-.59l-3.11-2.58L23,48.82,7.88,36.28a4.08,4.08,0,0,1-.28.55s0,.09-.07.14a5.94,5.94,0,0,1-.51.71,5.33,5.33,0,0,1-1.22,1.1l8.8,7.29,9.24,7.68L30,58.83h0a1,1,0,0,0,.44-.19l.08-.08a3.8,3.8,0,0,0,.81-.73A5.45,5.45,0,0,0,31.65,57.34Z"/><polygon class="cls-1" points="14.6 53.75 21.75 53.75 14.6 47.81 14.6 53.75"/><path class="cls-1" d="M6,36.82a3.78,3.78,0,0,0,.63-1,.94.94,0,0,0,.11-.48L4.84,33.76,2.76,36.25l1.9,1.58h0A1.1,1.1,0,0,0,5,37.68l0,0a3,3,0,0,0,.57-.45A3.37,3.37,0,0,0,6,36.85Z"/><path class="cls-1" d="M12.07,17.05,13,18a6,6,0,0,1,8.5,0l.94-.94A7.35,7.35,0,0,0,12.07,17.05Z"/><path class="cls-1" d="M35.82,17.05a7.34,7.34,0,0,0-6.95-1.93,7.15,7.15,0,0,0-1.08.35,7.3,7.3,0,0,0-2.36,1.58l.94.94a6.12,6.12,0,0,1,1.39-1,6.91,6.91,0,0,1,1-.45A6,6,0,0,1,34.87,18Z"/><path class="cls-2" d="M60.63,87.27a1.32,1.32,0,0,1,0-1.56l3.22-4.66A1.34,1.34,0,0,0,62.73,79a1.54,1.54,0,0,0-.46.08l-5.34,1.88a1.32,1.32,0,0,1-.44.08,1.33,1.33,0,0,1-1.05-.52L52,76a1.31,1.31,0,0,0-1-.53,1.33,1.33,0,0,0-1.34,1.37l.14,5.66a1.34,1.34,0,0,1-.89,1.28l-5.34,1.88a1.33,1.33,0,0,0,.06,2.53L49,89.78A1.33,1.33,0,0,1,50,91l.14,5.66A1.32,1.32,0,0,0,51.44,98a1.29,1.29,0,0,0,1.08-.58l3.22-4.66a1.33,1.33,0,0,1,1.09-.57,1.26,1.26,0,0,1,.38.06l5.42,1.61a1.44,1.44,0,0,0,.4.06,1.33,1.33,0,0,0,1-2.13Z"/><path class="cls-1" d="M97.59,65.21a18.69,18.69,0,0,0-33-12,4.78,4.78,0,0,0-3.79,7.39,19.14,19.14,0,0,0-.6,4.63A18.69,18.69,0,0,0,70.41,81.86a9.15,9.15,0,0,0-.87,3.88v13h18.7v-13a9.3,9.3,0,0,0-.86-3.88A18.7,18.7,0,0,0,97.59,65.21ZM78.89,82.57a17.36,17.36,0,0,1-17-20.83,4.7,4.7,0,0,0,2.93,1h4.56a4.79,4.79,0,0,0,4.22-2.58,4.82,4.82,0,0,0,4.23,2.58h4.56a4.8,4.8,0,1,0,0-9.6H77.82a4.82,4.82,0,0,0-4.23,2.58,4.79,4.79,0,0,0-4.22-2.58h-3a17.35,17.35,0,1,1,12.48,29.4Z"/><path class="cls-1" d="M73.48,68.76a2.38,2.38,0,0,1-2.57-2.44H69.57a3.91,3.91,0,0,0,7.82,0H76.05A2.38,2.38,0,0,1,73.48,68.76Z"/></svg>