<svg id="Layer_1" data-name="Layer 1" xmlns="http://www.w3.org/2000/svg" viewBox="0 0 100 100"><defs><style>.cls-1{fill:#2e0078;}</style></defs><title>images</title><path class="cls-1" d="M30.2,47.75a18.68,18.68,0,0,0-8.48,35.34A9.23,9.23,0,0,0,20.85,87v13h18.7V87a9.38,9.38,0,0,0-.86-3.89A18.69,18.69,0,0,0,30.2,47.75Zm0,36.06A17.37,17.37,0,1,1,47.56,66.44,17.38,17.38,0,0,1,30.2,83.81Z"/><path class="cls-1" d="M18.33,63.3l.94,1a6,6,0,0,1,8.5,0l.95-1A7.36,7.36,0,0,0,18.33,63.3Z"/><path class="cls-1" d="M42.07,63.3a7.36,7.36,0,0,0-10.39,0l1,1a6,6,0,0,1,8.5,0Z"/><path class="cls-1" d="M28.87,71.79v1.33a6.52,6.52,0,0,0,6-4.46l-1.26-.43C33.53,68.38,32.33,71.79,28.87,71.79Z"/><path class="cls-1" d="M18.18,67.78a3.34,3.34,0,1,0,3.34,3.34A3.35,3.35,0,0,0,18.18,67.78Zm0,5.34a2,2,0,1,1,2-2A2,2,0,0,1,18.18,73.12Z"/><path class="cls-1" d="M38.88,71.12a3.34,3.34,0,1,0,3.34-3.34A3.35,3.35,0,0,0,38.88,71.12Zm5.34,0a2,2,0,1,1-2-2A2,2,0,0,1,44.22,71.12Z"/><rect class="cls-1" x="57.54" y="84.4" width="5.04" height="15.6"/><rect class="cls-1" x="66.18" y="70.68" width="5.04" height="29.32"/><rect class="cls-1" x="74.82" y="76.54" width="5.04" height="23.46"/><rect class="cls-1" x="83.46" y="58.35" width="5.04" height="41.65"/></svg>