<svg id="Layer_1" data-name="Layer 1" xmlns="http://www.w3.org/2000/svg" viewBox="0 0 100 100"><defs><style>.cls-1{fill:#2e0078;}.cls-2{fill:#efdb22;}</style></defs><title>images</title><path class="cls-1" d="M38.64,20.19A18.7,18.7,0,1,0,11.46,36.84a9.34,9.34,0,0,0-.86,3.89v13H29.29v-13a9.34,9.34,0,0,0-.86-3.89A18.67,18.67,0,0,0,38.64,20.19Zm-36.06,0A17.37,17.37,0,1,1,19.94,37.55,17.38,17.38,0,0,1,2.58,20.19Z"/><path class="cls-1" d="M8.07,17.05,9,18a6,6,0,0,1,8.5,0l.94-.94A7.35,7.35,0,0,0,8.07,17.05Z"/><path class="cls-1" d="M31.82,17.05a7.35,7.35,0,0,0-10.39,0l.94.94a6,6,0,0,1,8.5,0Z"/><path class="cls-1" d="M18.61,25.53v1.34a6.52,6.52,0,0,0,6-4.46L23.32,22C23.27,22.13,22.07,25.53,18.61,25.53Z"/><path class="cls-1" d="M7.92,21.53a3.34,3.34,0,1,0,3.34,3.34A3.33,3.33,0,0,0,7.92,21.53Zm0,5.34a2,2,0,1,1,2-2A2,2,0,0,1,7.92,26.87Z"/><path class="cls-1" d="M35.3,24.87A3.34,3.34,0,1,0,32,28.21,3.33,3.33,0,0,0,35.3,24.87Zm-3.34,2a2,2,0,1,1,2-2A2,2,0,0,1,32,26.87Z"/><path class="cls-1" d="M98.59,65.21A18.7,18.7,0,1,0,71.41,81.86a9.15,9.15,0,0,0-.87,3.88v13h18.7v-13a9.3,9.3,0,0,0-.86-3.88A18.7,18.7,0,0,0,98.59,65.21ZM79.89,82.57A17.36,17.36,0,1,1,97.25,65.21,17.38,17.38,0,0,1,79.89,82.57Z"/><path class="cls-1" d="M74.66,58.77a7.33,7.33,0,0,0-10.38,0l.94.94a6,6,0,0,1,8.5,0Z"/><path class="cls-1" d="M78.63,58.77l1,.94a6,6,0,0,1,8.49,0l1-.94A7.35,7.35,0,0,0,78.63,58.77Z"/><path class="cls-1" d="M73.48,68.76a2.38,2.38,0,0,1-2.57-2.44H69.57a3.91,3.91,0,0,0,7.82,0H76.05A2.38,2.38,0,0,1,73.48,68.76Z"/><path class="cls-2" d="M39.28,45.15a1.52,1.52,0,0,0-1.51,1.51V69.18a1.52,1.52,0,0,0,1.51,1.51H55.71a1.52,1.52,0,0,0,1.51-1.51v-18l-6.08-6.08Zm16.6,6.63v17.4a.18.18,0,0,1-.17.18H39.28a.19.19,0,0,1-.18-.18V46.66a.18.18,0,0,1,.18-.17H50.59l0,0v5.19h5.19Z"/><path class="cls-2" d="M33.37,46.45V70a2,2,0,0,0,1.22.28A2,2,0,0,0,35.8,70V46.46a3.88,3.88,0,0,1-1.21.17A4.12,4.12,0,0,1,33.37,46.45Z"/><path class="cls-2" d="M33.51,71.1,34.59,75l1.08-3.86a4.32,4.32,0,0,1-1.08.13A4,4,0,0,1,33.51,71.1Z"/><path class="cls-2" d="M33.37,45.35a2,2,0,0,0,1.22.28,2,2,0,0,0,1.21-.28V43.5H33.37Z"/><rect class="cls-2" x="41.88" y="55.9" width="7.35" height="1.34"/><rect class="cls-2" x="41.81" y="59.26" width="11.37" height="1.34"/><rect class="cls-2" x="41.81" y="62.62" width="11.37" height="1.34"/><rect class="cls-2" x="41.81" y="65.98" width="11.37" height="1.34"/></svg>