<svg id="Layer_1" data-name="Layer 1" xmlns="http://www.w3.org/2000/svg" viewBox="0 0 100 100"><defs><style>.cls-1{fill:#2e0078;}.cls-2{fill:#efdb22;}</style></defs><title>images</title><path class="cls-1" d="M12.27,17.05l1,.94a6,6,0,0,1,8.5,0l.94-.94A7.35,7.35,0,0,0,12.27,17.05Z"/><path class="cls-1" d="M36,17.05a7.35,7.35,0,0,0-10.39,0l.94.94a6,6,0,0,1,8.5,0Z"/><path class="cls-1" d="M22.81,25.53v1.34a6.52,6.52,0,0,0,6-4.46L27.52,22C27.47,22.13,26.27,25.53,22.81,25.53Z"/><path class="cls-1" d="M12.13,21.53a3.34,3.34,0,1,0,3.33,3.34A3.33,3.33,0,0,0,12.13,21.53Zm0,5.34a2,2,0,1,1,2-2A2,2,0,0,1,12.13,26.87Z"/><path class="cls-1" d="M32.83,24.87a3.34,3.34,0,1,0,3.33-3.34A3.34,3.34,0,0,0,32.83,24.87Zm5.34,0a2,2,0,1,1-2-2A2,2,0,0,1,38.17,24.87Z"/><path class="cls-1" d="M24.14,1.49a18.69,18.69,0,0,0-8.48,35.35,9.17,9.17,0,0,0-.83,3.31l16.38,13.6h2.28v-13a9.34,9.34,0,0,0-.86-3.89A18.69,18.69,0,0,0,24.14,1.49Zm0,36.06A17.36,17.36,0,1,1,41.51,20.19,17.38,17.38,0,0,1,24.14,37.55Z"/><polygon class="cls-1" points="14.8 53.75 21.95 53.75 14.8 47.81 14.8 53.75"/><path class="cls-2" d="M6.19,36.82a3.78,3.78,0,0,0,.63-1,.94.94,0,0,0,.11-.48L5,33.76,3,36.25l1.9,1.58h0a1.1,1.1,0,0,0,.37-.15l0,0a3,3,0,0,0,.57-.45,3.37,3.37,0,0,0,.32-.33Z"/><path class="cls-2" d="M31.85,57.34c.08-.14.16-.28.23-.42a1.4,1.4,0,0,0,.16-.59l-3.12-2.58-5.93-4.93L8.08,36.28a4.08,4.08,0,0,1-.28.55s0,.09-.07.14a5.94,5.94,0,0,1-.51.71A5.33,5.33,0,0,1,6,38.78l8.8,7.29L24,53.75l6.12,5.08h0a1,1,0,0,0,.44-.19l.08-.08a3.8,3.8,0,0,0,.81-.73A5.45,5.45,0,0,0,31.85,57.34Z"/><path class="cls-2" d="M33.15,57.73,33,58a5.18,5.18,0,0,1-.46.65h0a5.42,5.42,0,0,1-1.07,1l4.9,2.19L33.3,57.45A2.49,2.49,0,0,1,33.15,57.73Z"/><path class="cls-1" d="M97.59,65.21A18.7,18.7,0,1,0,70.41,81.86a9.15,9.15,0,0,0-.87,3.88v13h18.7v-13a9.3,9.3,0,0,0-.86-3.88A18.7,18.7,0,0,0,97.59,65.21ZM78.89,82.57A17.36,17.36,0,1,1,96.25,65.21,17.38,17.38,0,0,1,78.89,82.57Z"/><path class="cls-1" d="M70.27,58.34A2.67,2.67,0,1,0,67.6,61,2.66,2.66,0,0,0,70.27,58.34Zm-4,0a1.34,1.34,0,1,1,1.33,1.33A1.33,1.33,0,0,1,66.27,58.34Z"/><path class="cls-1" d="M82.29,61a2.67,2.67,0,1,0-2.67-2.67A2.67,2.67,0,0,0,82.29,61Zm0-4A1.34,1.34,0,1,1,81,58.34,1.34,1.34,0,0,1,82.29,57Z"/><path class="cls-1" d="M86.5,63.6c.24,2.82-1.9,5.92-5.32,7.73a12.09,12.09,0,0,1-13.67-1.41l-.85,1a13.45,13.45,0,0,0,8.63,3.16,14.18,14.18,0,0,0,6.52-1.61c4-2.09,6.31-5.63,6-9Z"/></svg>